<svg width="32" height="32" viewBox="0 0 32 32" fill="none" xmlns="http://www.w3.org/2000/svg">
<g clip-path="url(#clip0_134_1548)">
<path d="M16.0364 0H15.9636C7.14713 0 0 7.14713 0 15.9636V16.0364C0 24.8529 7.14713 32 15.9636 32H16.0364C24.8529 32 32 24.8529 32 16.0364V15.9636C32 7.14713 24.8529 0 16.0364 0Z" fill="#BDBDBD"/>
<path d="M20.9515 6.51025H11.0498C8.31428 6.51025 6.08887 8.73567 6.08887 11.4712V20.5298C6.08887 23.2653 8.31428 25.4907 11.0498 25.4907H20.9515C23.687 25.4907 25.9124 23.2653 25.9124 20.5298V11.4712C25.9124 8.73567 23.687 6.51025 20.9515 6.51025ZM7.83893 11.4712C7.83893 9.70095 9.27956 8.26032 11.0498 8.26032H20.9515C22.7217 8.26032 24.1624 9.70095 24.1624 11.4712V20.5298C24.1624 22.3 22.7217 23.7407 20.9515 23.7407H11.0498C9.27956 23.7407 7.83893 22.3 7.83893 20.5298V11.4712Z" fill="#141414"/>
<path d="M16.0003 20.6138C18.5441 20.6138 20.6148 18.5442 20.6148 15.9993C20.6148 13.4543 18.5452 11.3848 16.0003 11.3848C13.4553 11.3848 11.3857 13.4543 11.3857 15.9993C11.3857 18.5442 13.4553 20.6138 16.0003 20.6138ZM16.0003 13.1359C17.5799 13.1359 18.8647 14.4207 18.8647 16.0004C18.8647 17.58 17.5799 18.8648 16.0003 18.8648C14.4206 18.8648 13.1358 17.58 13.1358 16.0004C13.1358 14.4207 14.4206 13.1359 16.0003 13.1359Z" fill="#141414"/>
<path d="M21.0413 12.1302C21.7261 12.1302 22.2842 11.573 22.2842 10.8869C22.2842 10.2007 21.7272 9.64355 21.0413 9.64355C20.3554 9.64355 19.7983 10.2007 19.7983 10.8869C19.7983 11.573 20.3554 12.1302 21.0413 12.1302Z" fill="#141414"/>
</g>
<defs>
<clipPath id="clip0_134_1548">
<rect width="32" height="32" fill="white"/>
</clipPath>
</defs>
</svg>
