<svg width="32" height="32" viewBox="0 0 32 32" fill="none" xmlns="http://www.w3.org/2000/svg">
<path d="M16.0364 0H15.9636C7.14713 0 0 7.14713 0 15.9636V16.0364C0 24.8529 7.14713 32 15.9636 32H16.0364C24.8529 32 32 24.8529 32 16.0364V15.9636C32 7.14713 24.8529 0 16.0364 0Z" fill="#BDBDBD"/>
<path d="M18.8763 20.0941C14.7808 20.0941 11.4489 16.761 11.4478 12.6656C11.4489 11.6274 12.2942 10.7832 13.3301 10.7832C13.4366 10.7832 13.542 10.7922 13.6429 10.8101C13.8649 10.8471 14.0757 10.9222 14.2696 11.0355C14.2976 11.0523 14.3167 11.0792 14.3212 11.1106L14.7539 13.8382C14.7595 13.8708 14.7494 13.9021 14.7281 13.9257C14.4893 14.1903 14.1844 14.3809 13.8447 14.4762L13.681 14.5221L13.7427 14.6802C14.301 16.1018 15.4378 17.2375 16.8605 17.798L17.0186 17.8608L17.0645 17.6971C17.1598 17.3574 17.3504 17.0525 17.615 16.8137C17.6341 16.7957 17.6599 16.7868 17.6856 16.7868C17.6912 16.7868 17.6969 16.7868 17.7036 16.7879L20.4313 17.2206C20.4638 17.2263 20.4907 17.2442 20.5075 17.2722C20.6196 17.4662 20.6947 17.6781 20.7328 17.9C20.7508 17.9987 20.7586 18.103 20.7586 18.2117C20.7586 19.2487 19.9144 20.0929 18.8763 20.0941Z" fill="#141414"/>
<path d="M26.1392 14.5154C25.9183 12.0198 24.7748 9.70473 22.9193 7.99727C21.0527 6.27972 18.631 5.3335 16.0984 5.3335C10.54 5.3335 6.01739 9.85608 6.01739 15.4146C6.01739 17.2801 6.53197 19.0974 7.50622 20.6804L5.3335 25.49L12.29 24.749C13.4997 25.2445 14.78 25.4956 16.0973 25.4956C16.4438 25.4956 16.7992 25.4777 17.1557 25.4407C17.4696 25.4071 17.7869 25.3577 18.0985 25.295C22.7534 24.3543 26.1515 20.223 26.1784 15.4684V15.4146C26.1784 15.1119 26.1649 14.8092 26.138 14.5154H26.1392ZM12.558 22.6379L8.70919 23.0482L9.85833 20.5022L9.6285 20.1939C9.61168 20.1715 9.59487 20.149 9.57581 20.1233C8.57801 18.7454 8.05108 17.1175 8.05108 15.4157C8.05108 10.9783 11.6611 7.36832 16.0984 7.36832C20.2555 7.36832 23.7792 10.6117 24.1189 14.752C24.1369 14.974 24.1469 15.1971 24.1469 15.4168C24.1469 15.4796 24.1458 15.5413 24.1447 15.6074C24.0595 19.3194 21.4664 22.472 17.8384 23.2747C17.5615 23.3364 17.2779 23.3835 16.9953 23.4137C16.7016 23.4474 16.4 23.4642 16.1007 23.4642C15.0345 23.4642 13.9986 23.2579 13.0199 22.8498C12.9111 22.8061 12.8046 22.759 12.7048 22.7108L12.5591 22.6402L12.558 22.6379Z" fill="#141414"/>
</svg>
