<svg width="90" height="43" viewBox="0 0 90 43" fill="none" xmlns="http://www.w3.org/2000/svg">
<path d="M81.9683 16.4845C80.6453 18.4468 80.661 18.4154 80.6452 20.0637C80.6452 21.351 80.7083 21.6806 81.0863 22.5597L81.5273 23.5487L81.1965 24.679C81.0075 25.2912 80.5823 26.3744 80.2515 27.0808C79.5742 28.5094 77.9203 31.1467 77.7785 31.0054C77.7313 30.9426 77.7628 30.5972 77.873 30.2048C77.9833 29.7495 78.0148 28.6664 77.9518 27.0965C77.8416 24.1609 77.5423 22.9679 76.6287 21.8062C76.0144 21.037 73.699 19.3102 73.5257 19.4986C73.4785 19.5457 73.6202 19.8596 73.8408 20.205C74.077 20.5503 74.5338 21.5079 74.8803 22.3242C75.4946 23.7842 76.5342 25.7151 77.1328 26.4843C77.3533 26.7826 77.4163 27.1436 77.4163 28.3053C77.4163 30.5658 76.8177 32.0886 75.2899 33.7055L74.329 34.7102V33.2346C74.3448 31.3665 74.0613 30.7699 72.8012 29.8908C72.3129 29.5455 71.8561 29.3257 71.7931 29.3885C71.6671 29.5141 72.2184 30.6286 73.2107 32.277C73.7778 33.2032 73.825 33.3758 73.7463 34.0509C73.699 34.4747 73.573 34.9614 73.4785 35.134C73.2422 35.5736 70.9583 37.0492 69.4619 37.74C68.2649 38.2894 67.9971 38.4935 68.2806 38.6662C68.5326 38.8231 71.8876 37.0963 73.321 36.0759C74.0613 35.5579 75.1639 34.8672 75.7781 34.5689C76.7862 34.0823 77.1485 33.9881 79.1331 33.7997C80.346 33.6741 81.7951 33.4543 82.3306 33.3287C83.5277 33.0148 85.7329 31.9787 86.1424 31.5391C86.4259 31.2252 86.4259 31.2252 85.6699 31.288C85.2446 31.3194 84.1892 31.3979 83.3229 31.4293C81.4801 31.5234 80.094 31.9002 78.7866 32.6851C77.9045 33.2189 76.802 33.627 76.6602 33.4857C76.613 33.4543 76.991 32.9834 77.4793 32.4339C78.5818 31.2409 79.7632 29.4827 80.5192 27.9599L81.0705 26.8454L82.3779 26.8297C84.0317 26.8297 85.2761 26.4215 86.9142 25.3697C87.5757 24.9302 88.127 24.5377 88.127 24.4906C88.127 24.4435 87.497 24.4592 86.7409 24.5063C85.3076 24.6162 83.8112 24.993 82.3464 25.6366L81.5116 26.0133V25.6523C81.5116 25.197 82.2361 24.1923 82.9449 23.6586C83.2442 23.4388 83.9372 23.015 84.5043 22.7324C85.0713 22.4498 86.2054 21.7905 87.0245 21.2725C87.8435 20.7387 88.8516 20.1579 89.2769 19.9538C90.2692 19.4672 90.2377 19.2474 89.1981 19.3573C86.6937 19.6555 85.6384 20.1422 84.331 21.6492C83.4962 22.6068 82.1416 23.6743 82.1416 23.376C82.1416 23.2975 82.2519 22.6696 82.3779 21.9946C82.5039 21.3196 82.6141 19.9381 82.6141 18.9334C82.6141 17.9287 82.6929 16.7357 82.7874 16.2961C82.8819 15.8723 82.9292 15.4327 82.8977 15.3385C82.8661 15.2443 82.4409 15.7624 81.9683 16.4845Z" fill="#FCF9F6"/>
<path d="M34.5127 0.754395V1.94777C33.2679 2.10689 32.0633 2.50468 30.8988 3.14115C29.7343 3.77762 28.5699 4.83177 27.4054 6.30361L15.7807 21.0418L17.1058 18.1181L31.5614 38.1668C32.244 39.1613 32.9868 39.937 33.7899 40.4939C34.593 41.0508 35.617 41.4884 36.8618 41.8066V43C35.8981 42.9204 34.6934 42.8807 33.2479 42.8807C31.8425 42.8409 30.6378 42.821 29.634 42.821C28.9513 42.821 28.1081 42.8409 27.1042 42.8807C26.1405 42.8807 24.9158 42.9204 23.4301 43V41.8066C24.7954 41.7271 25.6587 41.4884 26.0201 41.0906C26.3814 40.6928 26.2409 40.0364 25.5984 39.1215L16.8046 25.9944C16.0015 24.7612 15.2788 23.8463 14.6363 23.2496C14.034 22.6131 13.3915 22.1954 12.7089 21.9965C12.0664 21.7976 11.2432 21.6783 10.2394 21.6385V20.4451C11.9259 20.4054 13.3313 20.0871 14.4556 19.4904C15.6201 18.854 16.5838 18.0584 17.3467 17.1037L23.1289 9.82407C24.454 8.15334 25.3575 6.74118 25.8394 5.58758C26.3212 4.43398 26.3011 3.55883 25.7791 2.96215C25.2571 2.32568 24.1529 1.98755 22.4664 1.94777V0.754395C23.2293 0.794173 24.0123 0.833952 24.8154 0.873731C25.6185 0.873731 26.4015 0.89362 27.1645 0.933399C27.9676 0.933399 28.7104 0.933399 29.393 0.933399C30.437 0.933399 31.4008 0.91351 32.2842 0.873731C33.1675 0.833952 33.9104 0.794173 34.5127 0.754395ZM15.3591 0.754395V1.94777C13.9938 1.98755 12.9498 2.14667 12.227 2.42512C11.5444 2.6638 11.0826 3.14115 10.8417 3.85718C10.6008 4.53342 10.4803 5.60747 10.4803 7.0793V36.6751C10.4803 38.1072 10.6008 39.1812 10.8417 39.8972C11.0826 40.6132 11.5444 41.0906 12.227 41.3293C12.9498 41.568 13.9938 41.7271 15.3591 41.8066V43C14.4355 42.9204 13.271 42.8807 11.8656 42.8807C10.5004 42.8409 9.11505 42.821 7.70965 42.821C6.14363 42.821 4.67799 42.8409 3.31274 42.8807C1.94749 42.8807 0.843243 42.9204 0 43V41.8066C1.36525 41.7271 2.38919 41.568 3.07181 41.3293C3.79459 41.0906 4.27644 40.6132 4.51737 39.8972C4.7583 39.1812 4.87876 38.1072 4.87876 36.6751V7.0793C4.87876 5.60747 4.7583 4.53342 4.51737 3.85718C4.27644 3.14115 3.79459 2.6638 3.07181 2.42512C2.38919 2.14667 1.36525 1.98755 0 1.94777V0.754395C0.843243 0.794173 1.94749 0.833952 3.31274 0.873731C4.67799 0.91351 6.14363 0.933399 7.70965 0.933399C9.11505 0.933399 10.5004 0.91351 11.8656 0.873731C13.271 0.833952 14.4355 0.794173 15.3591 0.754395Z" fill="#FCF9F6"/>
<path d="M44.2867 0.754395C45.13 0.794173 46.2342 0.833952 47.5995 0.873731C48.9647 0.91351 50.3099 0.933399 51.635 0.933399C53.5222 0.933399 55.3292 0.91351 57.0558 0.873731C58.7825 0.833952 60.0072 0.814063 60.7299 0.814063C64.9462 0.814063 68.1184 1.68921 70.2465 3.43949C72.3747 5.18978 73.4388 7.43731 73.4388 10.1821C73.4388 11.5744 73.1377 12.9467 72.5353 14.2992C71.9732 15.612 71.0095 16.8252 69.6442 17.939C68.3191 19.0131 66.5323 19.8882 64.2836 20.5645V20.6838C67.4558 21.0816 69.9253 21.8374 71.6921 22.9512C73.4991 24.0253 74.7639 25.2982 75.4867 26.7701C76.2095 28.2419 76.5709 29.7933 76.5709 31.4242C76.5709 33.6917 75.9886 35.7005 74.8242 37.4508C73.6998 39.1613 72.0535 40.5138 69.8852 41.5083C67.7168 42.5028 65.1269 43 62.1153 43C61.2319 43 59.9068 42.9801 58.14 42.9403C56.3732 42.8608 54.245 42.821 51.7554 42.821C50.35 42.821 48.9647 42.8409 47.5995 42.8807C46.2342 42.8807 45.13 42.9204 44.2867 43V41.8066C45.652 41.7271 46.6759 41.568 47.3585 41.3293C48.0813 41.0906 48.5632 40.6132 48.8041 39.8972C49.045 39.1812 49.1655 38.1072 49.1655 36.6751V7.0793C49.1655 5.60747 49.045 4.53342 48.8041 3.85718C48.5632 3.14115 48.0813 2.6638 47.3585 2.42512C46.6759 2.14667 45.652 1.98755 44.2867 1.94777V0.754395ZM59.2242 1.94777C57.3771 1.94777 56.1724 2.2859 55.6103 2.96215C55.0481 3.63839 54.767 5.01078 54.767 7.0793V36.6751C54.767 38.0674 54.8875 39.1215 55.1284 39.8375C55.3693 40.5536 55.811 41.0309 56.4535 41.2696C57.096 41.5083 58.0396 41.6276 59.2844 41.6276C63.2195 41.6276 66.0705 40.7326 67.8373 38.9425C69.6442 37.1127 70.5477 34.527 70.5477 31.1856C70.5477 28.1225 69.7045 25.7557 68.018 24.0849C66.3716 22.4142 63.6411 21.5789 59.8265 21.5789H53.6226C53.6226 21.5789 53.6226 21.4197 53.6226 21.1015C53.6226 20.7435 53.6226 20.5645 53.6226 20.5645H58.8025C61.1716 20.5645 62.9987 20.1269 64.2836 19.2518C65.5686 18.3368 66.452 17.1435 66.9338 15.6716C67.4157 14.16 67.6566 12.549 67.6566 10.8384C67.6566 7.89478 66.994 5.68703 65.6689 4.21519C64.384 2.70358 62.2357 1.94777 59.2242 1.94777Z" fill="#FCF9F6"/>
</svg>