<svg width="66" height="31" viewBox="0 0 66 31" fill="none" xmlns="http://www.w3.org/2000/svg">
<path d="M60.1101 11.8842C59.1398 13.2988 59.1514 13.2762 59.1398 14.4645C59.1398 15.3925 59.186 15.6302 59.4633 16.264L59.7867 16.977L59.5441 17.7918C59.4055 18.2332 59.0936 19.0141 58.8511 19.5234C58.3544 20.5533 57.1416 22.4546 57.0376 22.3527C57.0029 22.3075 57.026 22.0585 57.1069 21.7755C57.1878 21.4473 57.2109 20.6664 57.1647 19.5347C57.0838 17.4184 56.8643 16.5582 56.1944 15.7207C55.7439 15.1662 54.0459 13.9213 53.9189 14.0571C53.8842 14.091 53.9882 14.3174 54.1499 14.5664C54.3231 14.8154 54.6581 15.5057 54.9122 16.0942C55.3627 17.1467 56.1251 18.5388 56.564 19.0933C56.7257 19.3084 56.7719 19.5687 56.7719 20.4061C56.7719 22.0358 56.333 23.1336 55.2126 24.2993L54.508 25.0236V23.9598C54.5195 22.613 54.3116 22.183 53.3875 21.5492C53.0295 21.3002 52.6945 21.1418 52.6483 21.187C52.5559 21.2776 52.9602 22.0811 53.6879 23.2694C54.1037 23.9372 54.1383 24.0616 54.0806 24.5483C54.0459 24.8539 53.9535 25.2047 53.8842 25.3292C53.711 25.6461 52.0361 26.7099 50.9388 27.2079C50.0609 27.604 49.8645 27.7511 50.0724 27.8756C50.2573 27.9888 52.7176 26.7439 53.7687 26.0082C54.3116 25.6348 55.1202 25.1368 55.5706 24.9218C56.3099 24.5709 56.5756 24.503 58.031 24.3672C58.9204 24.2767 59.9831 24.1182 60.3758 24.0277C61.2536 23.8013 62.8708 23.0544 63.1711 22.7375C63.379 22.5112 63.379 22.5112 62.8246 22.5564C62.5127 22.5791 61.7388 22.6357 61.1035 22.6583C59.752 22.7262 58.7356 22.9978 57.7768 23.5637C57.13 23.9485 56.3214 24.2427 56.2175 24.1409C56.1828 24.1182 56.4601 23.7787 56.8181 23.3826C57.6267 22.5225 58.493 21.2549 59.0474 20.1572L59.4517 19.3536L60.4104 19.3423C61.6233 19.3423 62.5358 19.0481 63.7371 18.2898C64.2222 17.9729 64.6265 17.69 64.6265 17.656C64.6265 17.6221 64.1644 17.6334 63.61 17.6673C62.5589 17.7466 61.4616 18.0182 60.3873 18.4822L59.7751 18.7538V18.4935C59.7751 18.1653 60.3065 17.441 60.8263 17.0562C61.0457 16.8978 61.554 16.5922 61.9698 16.3885C62.3856 16.1848 63.2173 15.7094 63.8179 15.336C64.4186 14.9512 65.1578 14.5324 65.4697 14.3853C66.1974 14.0345 66.1743 13.876 65.4119 13.9552C63.5754 14.1703 62.8015 14.5211 61.8427 15.6076C61.2305 16.2979 60.2372 17.0675 60.2372 16.8525C60.2372 16.7959 60.318 16.3432 60.4104 15.8566C60.5028 15.3699 60.5837 14.374 60.5837 13.6497C60.5837 12.9254 60.6415 12.0652 60.7108 11.7484C60.7801 11.4428 60.8147 11.1259 60.7916 11.058C60.7685 10.9901 60.4566 11.3636 60.1101 11.8842Z" fill="#0C4A2C"/>
<path d="M25.3093 0.543861V1.4042C24.3965 1.51892 23.5131 1.8057 22.6591 2.26455C21.8052 2.7234 20.9512 3.48337 20.0973 4.54446L11.5725 15.1697L12.5442 13.0618L23.145 27.5156C23.6456 28.2326 24.1904 28.7918 24.7793 29.1933C25.3682 29.5948 26.1191 29.9102 27.032 30.1397V31C26.3252 30.9426 25.4418 30.914 24.3818 30.914C23.3511 30.8853 22.4677 30.8709 21.7316 30.8709C21.231 30.8709 20.6126 30.8853 19.8764 30.914C19.1697 30.914 18.2716 30.9426 17.1821 31V30.1397C18.1833 30.0823 18.8164 29.9102 19.0814 29.6235C19.3464 29.3367 19.2433 28.8635 18.7722 28.2039L12.3234 18.7401C11.7345 17.8511 11.2044 17.1915 10.7333 16.7613C10.2916 16.3025 9.82043 16.0014 9.31984 15.858C8.8487 15.7146 8.24504 15.6285 7.50887 15.5999V14.7395C8.74563 14.7108 9.77626 14.4814 10.6008 14.0512C11.4547 13.5924 12.1614 13.0188 12.7209 12.3306L16.9612 7.08247C17.933 5.87799 18.5955 4.85991 18.9489 4.02825C19.3022 3.19658 19.2875 2.56567 18.9047 2.1355C18.5219 1.67665 17.7121 1.43288 16.4754 1.4042V0.543861C17.0348 0.572539 17.609 0.601217 18.198 0.629895C18.7869 0.629895 19.3611 0.644233 19.9206 0.672911C20.5095 0.672911 21.0543 0.672911 21.5549 0.672911C22.3205 0.672911 23.0272 0.658572 23.675 0.629895C24.3229 0.601217 24.8676 0.572539 25.3093 0.543861ZM11.2633 0.543861V1.4042C10.2621 1.43288 9.49652 1.54759 8.96648 1.74834C8.46589 1.92041 8.12725 2.26455 7.95057 2.78075C7.77389 3.26828 7.68555 4.04259 7.68555 5.10368V26.4402C7.68555 27.4726 7.77389 28.2469 7.95057 28.7631C8.12725 29.2793 8.46589 29.6235 8.96648 29.7955C9.49652 29.9676 10.2621 30.0823 11.2633 30.1397V31C10.586 30.9426 9.73209 30.914 8.70146 30.914C7.70028 30.8853 6.68437 30.8709 5.65374 30.8709C4.50533 30.8709 3.43052 30.8853 2.42934 30.914C1.42816 30.914 0.618378 30.9426 0 31V30.1397C1.00118 30.0823 1.75207 29.9676 2.25266 29.7955C2.7827 29.6235 3.13606 29.2793 3.31274 28.7631C3.48942 28.2469 3.57776 27.4726 3.57776 26.4402V5.10368C3.57776 4.04259 3.48942 3.26828 3.31274 2.78075C3.13606 2.26455 2.7827 1.92041 2.25266 1.74834C1.75207 1.54759 1.00118 1.43288 0 1.4042V0.543861C0.618378 0.572539 1.42816 0.601217 2.42934 0.629895C3.43052 0.658572 4.50533 0.672911 5.65374 0.672911C6.68437 0.672911 7.70028 0.658572 8.70146 0.629895C9.73209 0.601217 10.586 0.572539 11.2633 0.543861Z" fill="#0C4A2C"/>
<path d="M32.4769 0.543861C33.0953 0.572539 33.9051 0.601217 34.9063 0.629895C35.9074 0.658572 36.8939 0.672911 37.8656 0.672911C39.2496 0.672911 40.5747 0.658572 41.8409 0.629895C43.1071 0.601217 44.0053 0.586878 44.5353 0.586878C47.6272 0.586878 49.9535 1.2178 51.5141 2.47963C53.0748 3.74147 53.8551 5.36178 53.8551 7.34057C53.8551 8.3443 53.6343 9.3337 53.1926 10.3088C52.7803 11.2551 52.0736 12.1298 51.0724 12.9328C50.1007 13.7071 48.7903 14.338 47.1413 14.8256V14.9116C49.4676 15.1984 51.2786 15.7433 52.5742 16.5462C53.8993 17.3205 54.8269 18.2382 55.3569 19.2993C55.8869 20.3604 56.152 21.4789 56.152 22.6547C56.152 24.2893 55.725 25.7376 54.871 26.9994C54.0465 28.2326 52.8392 29.2076 51.2491 29.9246C49.659 30.6415 47.7597 31 45.5512 31C44.9034 31 43.9316 30.9857 42.636 30.957C41.3403 30.8996 39.7797 30.8709 37.954 30.8709C36.9234 30.8709 35.9074 30.8853 34.9063 30.914C33.9051 30.914 33.0953 30.9426 32.4769 31V30.1397C33.4781 30.0823 34.229 29.9676 34.7296 29.7955C35.2596 29.6235 35.613 29.2793 35.7897 28.7631C35.9663 28.2469 36.0547 27.4726 36.0547 26.4402V5.10368C36.0547 4.04259 35.9663 3.26828 35.7897 2.78075C35.613 2.26455 35.2596 1.92041 34.7296 1.74834C34.229 1.54759 33.4781 1.43288 32.4769 1.4042V0.543861ZM43.431 1.4042C42.0765 1.4042 41.1931 1.64797 40.7809 2.1355C40.3686 2.62302 40.1625 3.61242 40.1625 5.10368V26.4402C40.1625 27.4439 40.2508 28.2039 40.4275 28.7201C40.6042 29.2363 40.9281 29.5804 41.3992 29.7525C41.8704 29.9246 42.5624 30.0106 43.4752 30.0106C46.361 30.0106 48.4517 29.3653 49.7473 28.0748C51.0724 26.7556 51.735 24.8916 51.735 22.4826C51.735 20.2744 51.1166 18.568 49.8798 17.3636C48.6725 16.1591 46.6702 15.5568 43.8727 15.5568H39.3233C39.3233 15.5568 39.3233 15.4421 39.3233 15.2127C39.3233 14.9546 39.3233 14.8256 39.3233 14.8256H43.1219C44.8592 14.8256 46.199 14.5101 47.1413 13.8792C48.0836 13.2196 48.7314 12.3592 49.0848 11.2981C49.4382 10.2084 49.6148 9.04692 49.6148 7.81376C49.6148 5.69158 49.129 4.09994 48.1572 3.03885C47.2149 1.94909 45.6395 1.4042 43.431 1.4042Z" fill="#0C4A2C"/>
</svg>