<svg width="28" height="22" viewBox="0 0 28 22" fill="none" xmlns="http://www.w3.org/2000/svg">
<path d="M1.5821 0.188768C1.33609 0.276859 0.949489 0.541134 0.738616 0.767656C-0.0345811 1.57306 -0.022866 1.40947 0.0122793 9.45097L0.0474247 16.6871L0.363733 17.2156C0.53946 17.4925 0.937773 17.8952 1.24237 18.084L1.80469 18.4363L9.20864 18.4741L16.6009 18.5118L16.9758 19.1285C17.7958 20.5128 19.4359 21.6328 21.0526 21.9222C22.7513 22.2243 24.6843 21.6328 26.0198 20.3869C28.0465 18.4992 28.5854 15.2273 27.3202 12.5216C26.875 11.5778 25.6332 10.3445 24.6257 9.81593L23.7705 9.38805V5.66303V1.9506L23.4191 1.30879C23.1496 0.792824 22.9388 0.578888 22.4584 0.327198L21.8493 0H11.95C3.81969 0.0125847 1.95699 0.0377541 1.5821 0.188768ZM21.8375 1.43464C22.4467 1.71149 22.599 2.16454 22.599 3.69985C22.599 4.45492 22.5522 5.03381 22.4819 5.05898C22.4233 5.07156 17.6084 5.07156 11.7977 5.03381L1.21894 4.97089L1.18379 3.7376C1.16036 2.81893 1.19551 2.40364 1.33609 2.08903C1.72269 1.2207 1.23065 1.25845 11.8563 1.25845C19.8694 1.25845 21.4978 1.28362 21.8375 1.43464ZM22.5756 7.76465L22.5404 9.12378L21.6032 9.19928C20.0803 9.32513 18.8853 9.92919 17.7724 11.1373C16.5423 12.4713 15.9917 14.0066 16.062 15.932L16.0971 17.1149H9.15007C3.06992 17.1149 2.15615 17.0898 1.85155 16.9136C1.18379 16.5486 1.16036 16.3347 1.16036 11.2254C1.16036 8.67073 1.19551 6.54395 1.24237 6.5062C1.27751 6.45586 6.10414 6.41811 11.9617 6.41811H22.6107L22.5756 7.76465ZM22.8333 10.5836C25.4458 11.0366 27.2851 13.9688 26.6642 16.6871C26.3361 18.0714 25.7035 19.0655 24.6726 19.7954C23.712 20.475 22.9856 20.6764 21.7204 20.6134C20.7949 20.5757 20.5372 20.5128 19.8811 20.1604C17.5615 18.9397 16.6243 15.8942 17.7724 13.3522C18.3933 11.993 19.8225 10.8227 21.1581 10.571C21.9547 10.4326 21.9898 10.4326 22.8333 10.5836Z" fill="#0C4A2C"/>
<path d="M3.05184 10.8681C2.77518 11.0767 2.7626 11.1749 2.73745 12.4019C2.7123 14.2425 2.64943 14.1934 5.49143 14.1934H7.67952L7.93102 13.8744C8.15738 13.6044 8.1951 13.3713 8.1951 12.5124C8.1951 10.7086 8.0945 10.6473 5.42855 10.6473C3.61772 10.635 3.31591 10.6718 3.05184 10.8681ZM6.93758 12.4142V12.9664H5.42855H3.91953V12.4142V11.862H5.42855H6.93758V12.4142Z" fill="#0C4A2C"/>
<path d="M22.9465 15.1C22.1182 15.9889 21.4153 16.7161 21.3651 16.7161C21.3275 16.7161 21.0011 16.4064 20.6623 16.0427C20.0222 15.3559 19.5829 15.1943 19.2691 15.531C18.9428 15.8811 19.1311 16.2717 20.1226 17.3626C21.0639 18.3996 21.3777 18.6016 21.6914 18.3592C22.1307 18.036 25.2684 14.3997 25.2684 14.2246C25.2684 13.9822 24.8291 13.4839 24.6032 13.4839C24.5154 13.4839 23.7749 14.2111 22.9465 15.1Z" fill="#0C4A2C"/>
</svg>
