<svg width="30" height="20" viewBox="0 0 30 20" fill="none" xmlns="http://www.w3.org/2000/svg">
<path d="M5.65614 0.926849C5.35288 1.27756 5.33197 2.08079 5.62477 2.25049C5.95939 2.44281 6.25219 2.37494 6.42996 2.08079L6.59727 1.79796L13.363 1.82059L20.1182 1.85453V8.81212V15.7697H16.7406H13.3525L13.2166 15.3398C13.0074 14.695 12.5787 14.1519 11.9826 13.8239C11.533 13.5637 11.3029 13.5184 10.6546 13.5071C9.71347 13.5071 9.21153 13.756 8.59457 14.514C7.33972 16.0525 7.92532 18.5075 9.70301 19.1637C11.2402 19.7293 12.8506 18.8356 13.3107 17.1499C13.363 16.9689 13.6453 16.9576 17.8804 16.9802L22.3874 17.0142L22.5233 17.4554C22.858 18.4849 23.7468 19.1976 24.8553 19.2994C26.0683 19.4239 27.1349 18.7564 27.6055 17.5911L27.8564 16.9576H28.4629C29.1426 16.9576 29.5714 16.7653 29.8328 16.3467C29.9792 16.0978 30.0001 15.6905 30.0001 13.4279V10.7919L28.8603 8.1899C27.1558 4.25292 27.1872 4.28686 23.5481 4.28686H21.2162V2.72564C21.2162 1.23231 21.2058 1.1418 20.9757 0.915537L20.7352 0.666647H13.3107H5.87574L5.65614 0.926849ZM26.3297 5.71232C26.5388 5.84807 26.8944 6.53818 27.7832 8.50667L28.9544 11.1313V13.4166C28.9544 15.9394 28.9858 15.8263 28.2224 15.8263C27.8564 15.8263 27.8146 15.7923 27.6996 15.4416C27.2499 13.9596 25.5768 13.0885 24.2174 13.6089C23.3808 13.937 22.7429 14.6384 22.4815 15.5095C22.356 15.9281 22.3456 15.9394 21.9168 15.8715C21.6763 15.8376 21.4149 15.7923 21.3522 15.7584C21.2476 15.7245 21.2162 14.6045 21.2162 10.6222V5.53131H23.6318C25.65 5.53131 26.0892 5.56525 26.3297 5.71232ZM11.3866 14.8307C11.7003 15.0004 11.9408 15.2493 12.0872 15.5435C13.0283 17.3536 10.8428 19.1184 9.49387 17.659C8.83508 16.935 8.86645 15.7923 9.56707 15.0683C10.1004 14.5253 10.686 14.4574 11.3866 14.8307ZM25.7755 14.7968C26.4029 15.1022 26.6957 15.6113 26.7062 16.4033C26.7062 17.478 26.0996 18.1455 25.1062 18.1455C24.1128 18.1455 23.4854 17.4554 23.4749 16.3806C23.4749 15.7018 23.7677 15.1701 24.3429 14.842C24.8971 14.5253 25.2108 14.514 25.7755 14.7968Z" fill="#0C4A2C"/>
<path d="M23.0984 6.7871C22.9624 6.85498 22.8056 6.9568 22.7638 7.03599C22.7219 7.11519 22.6801 7.89579 22.6801 8.77822C22.6801 10.9843 22.5232 10.8485 25.0748 10.8485H27.0616L27.2707 10.5431C27.4171 10.3507 27.4694 10.1697 27.4276 10.0114C27.2603 9.4457 26.11 6.93417 25.9532 6.79842C25.744 6.62872 23.4958 6.61741 23.0984 6.7871ZM25.8068 8.72165C26.0264 9.24206 26.1728 9.7059 26.1309 9.75115C26.0996 9.7964 25.5244 9.81903 24.8656 9.80772L23.6735 9.77378L23.6422 8.9366C23.6212 8.47276 23.6317 8.03155 23.6631 7.94105C23.7049 7.83923 23.9559 7.79397 24.5624 7.79397H25.4094L25.8068 8.72165Z" fill="#0C4A2C"/>
<path d="M2.3202 3.77776C2.05877 3.97008 2.00649 4.38867 2.20517 4.60362C2.38294 4.79594 8.2598 4.79594 8.43757 4.60362C8.58397 4.44524 8.59442 4.0719 8.45848 3.83433C8.30163 3.57412 2.65483 3.51756 2.3202 3.77776Z" fill="#0C4A2C"/>
<path d="M0.0719498 7.0699C-0.0221635 7.27354 -0.0221635 7.4093 0.0614928 7.54505C0.155606 7.71475 0.552974 7.73738 3.98288 7.77132C7.69513 7.79394 7.7997 7.79394 7.98793 7.56768C8.14478 7.37536 8.15524 7.29617 8.06113 7.05859L7.93564 6.77576H4.06654H0.197434L0.0719498 7.0699Z" fill="#0C4A2C"/>
<path d="M2.24705 10.0113C2.04836 10.215 2.02745 10.5204 2.20522 10.7128C2.29933 10.8146 3.10452 10.8485 5.16456 10.8485C8.14482 10.8485 8.24939 10.8259 8.24939 10.3394C8.24939 9.85295 8.13436 9.83033 5.20639 9.83033C2.80127 9.83033 2.38299 9.85295 2.24705 10.0113Z" fill="#0C4A2C"/>
<path d="M5.59334 12.5002C5.4574 12.6473 5.42603 12.998 5.42603 14.514C5.42603 16.358 5.42603 16.358 5.69791 16.6635C6.19985 17.1952 7.30829 17.0142 7.30829 16.4033C7.30829 16.1657 7.02595 15.8603 6.73316 15.8037C6.53447 15.7697 6.52401 15.6679 6.49264 14.1972C6.48219 13.2695 6.41944 12.5568 6.34624 12.4663C6.19985 12.2627 5.79202 12.2853 5.59334 12.5002Z" fill="#0C4A2C"/>
</svg>
