<svg width="32" height="22" viewBox="0 0 32 22" fill="none" xmlns="http://www.w3.org/2000/svg">
<path d="M18.9624 0.0921745C17.2772 0.417276 15.3073 1.29169 13.941 2.33426C10.8894 4.65481 9.09039 9.02687 9.72803 12.603C10.6162 17.6589 14.59 21.3919 19.6683 21.9413C22.959 22.2888 26.4204 21.078 28.766 18.7463C31.8517 15.6858 32.8082 11.3026 31.2938 7.18836C30.9181 6.14579 30.0185 4.65481 29.1873 3.71313C27.9234 2.24457 25.5892 0.82085 23.6308 0.293962C22.5832 0.0249119 19.9302 -0.098402 18.9624 0.0921745ZM22.4921 1.25806C25.6917 1.80737 28.5042 3.97097 29.8933 6.96415C31.6468 10.7196 30.8839 14.8787 27.8779 17.9279C26.1586 19.6767 23.8813 20.6633 21.2396 20.7866C19.1332 20.8875 17.448 20.4615 15.5123 19.3404C14.6242 18.836 12.8023 17.0087 12.2672 16.1118C10.6617 13.3765 10.3884 10.3609 11.5157 7.52467C13.2806 3.07414 17.8465 0.462118 22.4921 1.25806Z" fill="#0C4A2C"/>
<path d="M20.1684 4.17258C20.0211 4.38334 20 4.90468 20 7.62233V10.8169L20.2842 11.0943C20.4316 11.2385 20.7368 11.4714 20.9368 11.6156C21.1474 11.7487 21.7579 12.1924 22.3053 12.6028C22.8421 13.0243 23.3895 13.3571 23.5158 13.3571C23.8105 13.3571 24 13.1575 24 12.8358C24 12.6361 23.6947 12.3366 22.5789 11.4714L21.1579 10.3622V7.38939C21.1579 4.16149 21.1158 3.92854 20.5789 3.92854C20.4421 3.92854 20.2526 4.03947 20.1684 4.17258Z" fill="#0C4A2C"/>
<path d="M3.42428 4.82857C3.14341 4.95714 3.12261 5.22143 3.38267 5.37857C3.5491 5.48571 3.89238 5.5 5.98324 5.5C8.26134 5.5 8.40698 5.49286 8.60462 5.35714C8.87508 5.17143 8.86468 5.05714 8.57341 4.87143C8.34456 4.72143 8.25094 4.71429 5.99364 4.71429C4.04841 4.71429 3.62192 4.73571 3.42428 4.82857Z" fill="#0C4A2C"/>
<path d="M0.235759 10.3286C-0.0689424 10.4643 -0.0802277 10.6714 0.213188 10.8571C0.427608 10.9929 0.585601 11 3.97117 11C7.80815 11 8 10.9786 8 10.6071C8 10.2357 7.79687 10.2143 3.99374 10.2143C1.00315 10.2143 0.450178 10.2286 0.235759 10.3286Z" fill="#0C4A2C"/>
<path d="M3.4139 15.8286C3.24586 15.9071 3.18284 16 3.20385 16.1286C3.25636 16.4571 3.55044 16.5 6.05008 16.5H8.33966L8.60223 16.3214C8.81228 16.1786 8.84379 16.1143 8.74927 16C8.54972 15.7429 8.28715 15.7143 5.94505 15.7143C4.01256 15.7143 3.61345 15.7357 3.4139 15.8286Z" fill="#0C4A2C"/>
</svg>
