<svg width="20" height="20" viewBox="0 0 20 20" fill="none" xmlns="http://www.w3.org/2000/svg">
<path d="M10 4.16675C10 3.6723 10.1466 3.18895 10.4213 2.77782C10.696 2.3667 11.0865 2.04627 11.5433 1.85705C12.0001 1.66783 12.5028 1.61832 12.9877 1.71479C13.4727 1.81125 13.9181 2.04935 14.2678 2.39898C14.6174 2.74861 14.8555 3.19407 14.952 3.67902C15.0484 4.16398 14.9989 4.66664 14.8097 5.12346C14.6205 5.58027 14.3 5.97072 13.8889 6.24542C13.4778 6.52013 12.9945 6.66675 12.5 6.66675M10 4.16675C10 3.6723 9.85338 3.18895 9.57867 2.77782C9.30397 2.3667 8.91352 2.04627 8.45671 1.85705C7.99989 1.66783 7.49723 1.61832 7.01228 1.71479C6.52732 1.81125 6.08187 2.04935 5.73223 2.39898C5.3826 2.74861 5.1445 3.19407 5.04804 3.67902C4.95157 4.16398 5.00108 4.66664 5.1903 5.12346C5.37952 5.58027 5.69995 5.97072 6.11108 6.24542C6.5222 6.52013 7.00555 6.66675 7.5 6.66675M10 4.16675V5.00008M12.5 6.66675C12.9945 6.66675 13.4778 6.81337 13.8889 7.08808C14.3 7.36278 14.6205 7.75323 14.8097 8.21004C14.9989 8.66686 15.0484 9.16952 14.952 9.65447C14.8555 10.1394 14.6174 10.5849 14.2678 10.9345C13.9181 11.2841 13.4727 11.5222 12.9877 11.6187C12.5028 11.7152 12.0001 11.6657 11.5433 11.4764C11.0865 11.2872 10.696 10.9668 10.4213 10.5557C10.1466 10.1446 10 9.6612 10 9.16675M12.5 6.66675H11.6667M7.5 6.66675C7.00555 6.66675 6.5222 6.81337 6.11108 7.08808C5.69995 7.36278 5.37952 7.75323 5.1903 8.21004C5.00108 8.66686 4.95157 9.16952 5.04804 9.65447C5.1445 10.1394 5.3826 10.5849 5.73223 10.9345C6.08187 11.2841 6.52732 11.5222 7.01228 11.6187C7.49723 11.7152 7.99989 11.6657 8.45671 11.4764C8.91352 11.2872 9.30397 10.9668 9.57867 10.5557C9.85338 10.1446 10 9.6612 10 9.16675M7.5 6.66675H8.33333M10 9.16675V8.33342" stroke="#0C4A2C" stroke-width="1.5" stroke-linecap="round" stroke-linejoin="round"/>
<path d="M10.0002 8.33333C10.9206 8.33333 11.6668 7.58714 11.6668 6.66667C11.6668 5.74619 10.9206 5 10.0002 5C9.07969 5 8.3335 5.74619 8.3335 6.66667C8.3335 7.58714 9.07969 8.33333 10.0002 8.33333Z" stroke="#0C4A2C" stroke-width="1.5" stroke-linecap="round" stroke-linejoin="round"/>
<path d="M10 8.33325V18.3333" stroke="#0C4A2C" stroke-width="1.5" stroke-linecap="round" stroke-linejoin="round"/>
<path d="M10 18.3334C13.5 18.3334 15.8333 16.9442 15.8333 14.1667C12.3333 14.1667 10 15.5559 10 18.3334Z" stroke="#0C4A2C" stroke-width="1.5" stroke-linecap="round" stroke-linejoin="round"/>
<path d="M9.99984 18.3334C6.49984 18.3334 4.1665 16.9442 4.1665 14.1667C7.6665 14.1667 9.99984 15.5559 9.99984 18.3334Z" stroke="#0C4A2C" stroke-width="1.5" stroke-linecap="round" stroke-linejoin="round"/>
</svg>
